<?xml version="1.0" encoding="UTF-8"?>
<!DOCTYPE svg PUBLIC "-//W3C//DTD SVG 1.1//EN" "http://www.w3.org/Graphics/SVG/1.1/DTD/svg11.dtd">
<!-- Creator: Rod Holcombe  modified from CorelDRAW 2020 (64-Bit) -->
<svg xmlns="http://www.w3.org/2000/svg" xml:space="preserve" width="60mm" height="60mm" version="1.1" style="shape-rendering:geometricPrecision; text-rendering:geometricPrecision; image-rendering:optimizeQuality; fill-rule:evenodd; clip-rule:evenodd"
viewBox="0 0 7200 7200"
 xmlns:xlink="http://www.w3.org/1999/xlink"
 xmlns:xodm="http://www.corel.com/coreldraw/odm/2003">

 <g id="Square_x0020_frame">
  <rect fill="none" width="7200" height="7200"/>
 </g>
 <g id="symbol">
  <g id="_2025807520784">
   <path fill="none"  stroke="param(outline) #000" stroke-width="param(outline-width) 2" d="M3600 0l0 7200m-1500 -3600l3000 0"/>
   <path fill="param(fill) #000" stroke="param(outline) #000" stroke-width="param(outline-width) 2" d="M5502.74 3600c0,222.43 -180.31,402.74 -402.74,402.74 -222.43,0 -402.74,-180.31 -402.74,-402.74 0,-222.43 180.31,-402.74 402.74,-402.74 222.43,0 402.74,180.31 402.74,402.74zm-3000 0c0,222.43 -180.31,402.74 -402.74,402.74 -222.43,0 -402.74,-180.31 -402.74,-402.74 0,-222.43 180.31,-402.74 402.74,-402.74 222.43,0 402.74,180.31 402.74,402.74z"/>
  </g>
 </g>
</svg>
